<?xml version="1.0" standalone="no"?>
<!DOCTYPE svg PUBLIC "-//W3C//DTD SVG 20010904//EN"
 "http://www.w3.org/TR/2001/REC-SVG-20010904/DTD/svg10.dtd">
<svg version="1.0" xmlns="http://www.w3.org/2000/svg"
 width="73.000000pt" height="128.000000pt" viewBox="0 0 73.000000 128.000000"
 preserveAspectRatio="xMidYMid meet">

<g transform="translate(0.000000,128.000000) scale(0.100000,-0.100000)"
fill="#d86371" stroke="none">
<path d="M569 1256 c-2 -2 -24 -6 -49 -10 -204 -26 -404 -199 -475 -411 -75
-222 -16 -467 151 -630 116 -114 282 -184 426 -180 65 2 88 16 88 56 0 39 -30
55 -115 62 -223 18 -398 170 -450 389 -37 159 5 321 117 443 91 100 185 149
316 165 34 5 69 14 77 20 23 19 19 66 -7 84 -20 15 -68 22 -79 12z"/>
</g>
</svg>
