<?xml version="1.0" standalone="no"?>
<!DOCTYPE svg PUBLIC "-//W3C//DTD SVG 20010904//EN"
 "http://www.w3.org/TR/2001/REC-SVG-20010904/DTD/svg10.dtd">
<svg version="1.0" xmlns="http://www.w3.org/2000/svg"
 width="525.000000pt" height="525.000000pt" viewBox="0 0 525.000000 525.000000"
 preserveAspectRatio="xMidYMid meet">

<g transform="translate(0.000000,525.000000) scale(0.100000,-0.100000)"
fill="#7248FF" stroke="none">
<path d="M2333 5243 c-70 -7 -96 -67 -50 -117 50 -56 137 -26 137 47 0 31 -24
79 -38 75 -4 -1 -26 -3 -49 -5z"/>
<path d="M2848 5228 c-46 -46 -5 -128 63 -128 62 0 103 75 67 122 -19 25 -108
28 -130 6z"/>
<path d="M1785 5120 l-50 -18 41 -1 c29 -1 46 5 59 19 22 24 15 24 -50 0z"/>
<path d="M3413 5127 c5 -17 59 -35 80 -28 14 5 5 11 -33 23 -34 11 -50 13 -47
5z"/>
<path d="M1156 4669 c-34 -27 -37 -88 -4 -119 31 -28 83 -26 113 5 29 28 31
54 10 94 -24 46 -74 55 -119 20z"/>
<path d="M1715 4658 c-21 -25 -25 -38 -21 -62 15 -76 117 -92 152 -25 18 36
10 73 -23 99 -38 30 -76 26 -108 -12z"/>
<path d="M2285 4665 c-51 -50 -15 -135 58 -135 45 0 77 34 77 82 0 70 -86 103
-135 53z"/>
<path d="M2855 4665 c-53 -52 -18 -135 56 -135 45 0 79 34 79 79 0 42 -38 81
-80 81 -19 0 -40 -9 -55 -25z"/>
<path d="M3426 4669 c-20 -16 -26 -29 -26 -58 0 -49 32 -81 82 -81 70 0 103
86 53 135 -30 31 -73 32 -109 4z"/>
<path d="M4035 4665 c-51 -50 -17 -135 54 -135 49 0 81 32 81 82 0 70 -86 103
-135 53z"/>
<path d="M582 4097 c-30 -32 -29 -81 3 -112 72 -73 178 28 114 109 -27 35 -86
36 -117 3z"/>
<path d="M1152 4097 c-32 -34 -30 -89 4 -116 54 -42 120 -16 130 51 5 30 2 41
-19 62 -34 34 -85 35 -115 3z"/>
<path d="M1732 4113 c-21 -8 -44 -63 -38 -89 21 -82 130 -84 159 -2 9 24 -11
76 -33 88 -20 10 -66 12 -88 3z"/>
<path d="M2285 4095 c-73 -72 28 -178 109 -114 20 16 26 29 26 58 0 74 -83
109 -135 56z"/>
<path d="M2851 4094 c-28 -36 -27 -79 4 -109 72 -73 178 28 114 109 -16 20
-29 26 -59 26 -30 0 -43 -6 -59 -26z"/>
<path d="M3422 4097 c-32 -34 -30 -89 4 -116 55 -43 134 -8 134 59 0 69 -91
107 -138 57z"/>
<path d="M4035 4095 c-73 -72 28 -178 109 -114 20 16 26 29 26 58 0 74 -83
109 -135 56z"/>
<path d="M4602 4097 c-30 -32 -29 -81 3 -112 72 -73 178 28 114 109 -27 35
-86 36 -117 3z"/>
<path d="M582 3527 c-63 -67 14 -165 96 -123 33 17 42 34 42 75 0 64 -93 96
-138 48z"/>
<path d="M1150 3530 c-31 -31 -27 -93 6 -119 37 -29 70 -26 105 8 34 35 37 68
8 105 -26 33 -88 37 -119 6z"/>
<path d="M1717 3532 c-9 -10 -20 -32 -23 -50 -5 -26 -1 -36 24 -62 37 -36 71
-39 108 -6 34 28 38 84 9 116 -24 26 -95 28 -118 2z"/>
<path d="M2281 3524 c-34 -43 -21 -102 26 -123 35 -16 57 -14 87 10 33 26 37
88 6 119 -31 31 -93 27 -119 -6z"/>
<path d="M2852 3527 c-27 -29 -28 -77 -3 -108 14 -18 29 -24 61 -24 50 0 80
30 80 79 0 69 -91 103 -138 53z"/>
<path d="M3420 3530 c-31 -31 -27 -93 6 -119 30 -24 52 -26 87 -10 47 21 60
80 26 123 -26 33 -88 37 -119 6z"/>
<path d="M4031 3524 c-45 -57 -5 -134 69 -134 58 0 93 97 50 140 -31 31 -93
27 -119 -6z"/>
<path d="M4602 3527 c-63 -67 14 -165 96 -123 33 17 42 34 42 75 0 64 -93 96
-138 48z"/>
<path d="M128 3460 c-20 -61 -17 -73 7 -37 9 15 15 40 13 59 -3 32 -4 31 -20
-22z"/>
<path d="M33 2973 c-28 -24 -38 -106 -14 -126 26 -23 48 -27 81 -16 35 13 50
35 50 77 0 62 -74 103 -117 65z"/>
<path d="M603 2980 c-39 -16 -56 -77 -33 -120 12 -22 64 -42 88 -33 75 26 84
115 15 151 -25 14 -40 14 -70 2z"/>
<path d="M1180 2983 c-51 -19 -68 -89 -32 -133 27 -34 88 -32 118 4 32 37 30
71 -5 107 -28 28 -49 34 -81 22z"/>
<path d="M1725 2967 c-59 -50 -26 -141 50 -141 101 0 109 140 9 160 -24 4 -37
0 -59 -19z"/>
<path d="M2290 2962 c-33 -34 -38 -66 -14 -100 22 -32 57 -43 94 -31 77 27 64
139 -17 155 -27 5 -37 1 -63 -24z"/>
<path d="M2873 2980 c-39 -16 -56 -77 -33 -119 16 -31 65 -46 100 -31 36 15
50 37 50 78 0 57 -62 95 -117 72z"/>
<path d="M3443 2980 c-39 -16 -56 -77 -33 -120 13 -25 65 -41 94 -30 30 11 56
47 56 78 0 28 -51 82 -77 81 -10 0 -28 -4 -40 -9z"/>
<path d="M4042 2965 c-70 -59 -9 -164 78 -134 76 27 64 139 -16 155 -24 4 -37
0 -62 -21z"/>
<path d="M4623 2980 c-39 -16 -56 -77 -33 -120 12 -22 64 -42 88 -33 75 26 84
115 15 151 -25 14 -40 14 -70 2z"/>
<path d="M5200 2983 c-33 -12 -50 -37 -50 -73 0 -44 23 -75 63 -84 27 -6 27
-6 27 41 0 58 -10 123 -19 122 -3 0 -13 -3 -21 -6z"/>
<path d="M35 2418 c-11 -6 -23 -15 -26 -21 -9 -13 2 -99 14 -114 16 -21 84
-16 107 7 25 25 26 80 3 109 -22 26 -71 35 -98 19z"/>
<path d="M603 2420 c-45 -18 -58 -90 -23 -128 45 -48 140 -14 140 50 0 40 -10
57 -41 73 -32 17 -44 18 -76 5z"/>
<path d="M1180 2423 c-52 -19 -69 -94 -30 -133 31 -31 93 -27 119 6 29 37 26
70 -8 105 -28 28 -49 34 -81 22z"/>
<path d="M1724 2406 c-21 -17 -28 -33 -28 -59 0 -51 27 -77 79 -77 52 0 79 26
79 77 0 41 -40 83 -79 83 -13 0 -36 -11 -51 -24z"/>
<path d="M2290 2402 c-36 -36 -39 -71 -7 -106 50 -56 137 -26 137 48 0 43 -26
74 -67 82 -27 5 -37 1 -63 -24z"/>
<path d="M2875 2418 c-77 -42 -51 -148 36 -148 83 0 111 108 38 145 -33 18
-47 18 -74 3z"/>
<path d="M3443 2420 c-27 -11 -43 -40 -43 -79 0 -71 88 -100 138 -45 30 34 28
70 -7 105 -30 30 -50 34 -88 19z"/>
<path d="M4055 2418 c-49 -29 -59 -78 -24 -122 26 -33 88 -37 119 -6 25 25 26
80 3 109 -22 26 -71 35 -98 19z"/>
<path d="M4623 2420 c-45 -18 -58 -90 -23 -128 45 -48 140 -14 140 50 0 40
-10 57 -41 73 -32 17 -44 18 -76 5z"/>
<path d="M5200 2423 c-52 -19 -69 -94 -30 -133 22 -22 60 -27 61 -7 0 6 3 42
8 80 7 70 4 76 -39 60z"/>
<path d="M585 1835 c-53 -52 -18 -135 57 -135 70 0 103 86 53 135 -15 16 -36
25 -55 25 -19 0 -40 -9 -55 -25z"/>
<path d="M1156 1839 c-34 -27 -37 -88 -4 -119 31 -28 83 -26 113 5 29 28 31
54 10 94 -24 46 -74 55 -119 20z"/>
<path d="M1715 1828 c-21 -25 -25 -38 -21 -62 15 -76 117 -92 152 -25 18 36
10 73 -23 99 -38 30 -76 26 -108 -12z"/>
<path d="M2285 1835 c-51 -50 -15 -135 58 -135 45 0 77 34 77 82 0 70 -86 103
-135 53z"/>
<path d="M2855 1835 c-53 -52 -18 -135 56 -135 45 0 79 34 79 79 0 42 -38 81
-80 81 -19 0 -40 -9 -55 -25z"/>
<path d="M3426 1839 c-20 -16 -26 -29 -26 -58 0 -49 32 -81 82 -81 70 0 103
86 53 135 -30 31 -73 32 -109 4z"/>
<path d="M4035 1835 c-51 -50 -17 -135 54 -135 49 0 81 32 81 82 0 70 -86 103
-135 53z"/>
<path d="M4605 1835 c-53 -52 -18 -135 57 -135 70 0 103 86 53 135 -15 16 -36
25 -55 25 -19 0 -40 -9 -55 -25z"/>
<path d="M115 1830 c4 -14 14 -41 21 -60 l13 -35 0 41 c1 30 -5 46 -20 60 -22
19 -22 19 -14 -6z"/>
<path d="M582 1267 c-30 -32 -29 -81 3 -112 72 -73 178 28 114 109 -27 35 -86
36 -117 3z"/>
<path d="M1152 1267 c-32 -34 -30 -89 4 -116 54 -42 120 -16 130 51 5 30 2 41
-19 62 -34 34 -85 35 -115 3z"/>
<path d="M1732 1283 c-21 -8 -44 -63 -38 -89 21 -82 130 -84 159 -2 9 24 -11
76 -33 88 -20 10 -66 12 -88 3z"/>
<path d="M2285 1265 c-73 -72 28 -178 109 -114 20 16 26 29 26 58 0 74 -83
109 -135 56z"/>
<path d="M2851 1264 c-64 -81 42 -182 114 -109 51 51 17 135 -55 135 -30 0
-43 -6 -59 -26z"/>
<path d="M3422 1267 c-32 -34 -30 -89 4 -116 55 -43 134 -8 134 59 0 69 -91
107 -138 57z"/>
<path d="M4035 1265 c-73 -72 28 -178 109 -114 20 16 26 29 26 58 0 74 -83
109 -135 56z"/>
<path d="M4602 1267 c-30 -32 -29 -81 3 -112 72 -73 178 28 114 109 -27 35
-86 36 -117 3z"/>
<path d="M1150 700 c-31 -31 -27 -93 6 -119 37 -29 70 -26 105 8 34 35 37 68
8 105 -26 33 -88 37 -119 6z"/>
<path d="M1717 702 c-9 -10 -20 -32 -23 -50 -5 -26 -1 -36 24 -62 37 -36 71
-39 108 -6 34 28 38 84 9 116 -24 26 -95 28 -118 2z"/>
<path d="M2281 694 c-24 -30 -26 -52 -10 -87 21 -47 80 -60 123 -26 33 26 37
88 6 119 -31 31 -93 27 -119 -6z"/>
<path d="M2852 697 c-27 -29 -28 -77 -3 -108 14 -18 29 -24 61 -24 50 0 80 30
80 79 0 69 -91 103 -138 53z"/>
<path d="M3420 700 c-31 -31 -27 -93 6 -119 43 -34 102 -21 123 26 16 35 14
57 -10 87 -26 33 -88 37 -119 6z"/>
<path d="M4031 694 c-45 -57 -5 -134 69 -134 58 0 93 97 50 140 -31 31 -93 27
-119 -6z"/>
<path d="M1750 153 c0 -5 23 -17 52 -26 51 -16 52 -16 32 3 -21 21 -84 38 -84
23z"/>
<path d="M2290 132 c-57 -57 -34 -112 50 -120 61 -6 80 9 80 64 0 41 -26 72
-67 80 -27 5 -37 1 -63 -24z"/>
<path d="M2873 150 c-41 -17 -58 -86 -29 -125 11 -15 21 -17 72 -11 64 7 74
16 74 62 0 59 -61 98 -117 74z"/>
<path d="M3444 150 c-22 -9 -42 -30 -28 -30 19 0 84 24 84 32 0 10 -28 9 -56
-2z"/>
</g>
</svg>
