<?xml version="1.0" standalone="no"?>
<!DOCTYPE svg PUBLIC "-//W3C//DTD SVG 20010904//EN"
 "http://www.w3.org/TR/2001/REC-SVG-20010904/DTD/svg10.dtd">
<svg version="1.0" xmlns="http://www.w3.org/2000/svg"
 width="929.000000pt" height="866.000000pt" viewBox="0 0 929.000000 866.000000"
 preserveAspectRatio="xMidYMid meet">

<g transform="translate(0.000000,866.000000) scale(0.100000,-0.100000)"
fill="#357667" stroke="none">
<path d="M7445 8628 c-21 -25 -25 -38 -21 -62 15 -76 117 -92 152 -25 18 36
10 73 -23 99 -38 30 -76 26 -108 -12z"/>
<path d="M8015 8636 c-33 -33 -33 -79 0 -111 53 -53 135 -18 135 58 0 41 -21
60 -77 72 -27 5 -37 2 -58 -19z"/>
<path d="M6932 8547 c-57 -20 -60 -23 -42 -35 32 -20 78 -15 105 13 27 26 32
45 13 44 -7 0 -41 -10 -76 -22z"/>
<path d="M6312 8067 c-32 -34 -30 -89 4 -116 36 -28 79 -27 109 4 31 30 32 73
4 109 -27 35 -86 36 -117 3z"/>
<path d="M6882 8067 c-32 -34 -30 -89 4 -116 54 -42 120 -16 130 51 5 30 2 41
-19 62 -34 34 -85 35 -115 3z"/>
<path d="M7462 8083 c-21 -8 -44 -63 -38 -89 21 -82 130 -84 159 -2 9 24 -11
76 -33 88 -20 10 -66 12 -88 3z"/>
<path d="M8015 8065 c-73 -72 28 -178 109 -114 20 16 26 29 26 58 0 74 -83
109 -135 56z"/>
<path d="M8581 8064 c-28 -36 -27 -79 4 -109 72 -73 178 28 114 109 -16 20
-29 26 -59 26 -30 0 -43 -6 -59 -26z"/>
<path d="M5742 7497 c-46 -48 -18 -123 50 -133 30 -5 41 -2 62 19 33 33 35 88
6 117 -29 29 -90 27 -118 -3z"/>
<path d="M6310 7500 c-31 -31 -27 -93 6 -119 31 -25 55 -26 93 -6 32 16 41 33
41 74 0 62 -95 96 -140 51z"/>
<path d="M6880 7500 c-31 -31 -27 -93 6 -119 37 -29 70 -26 105 8 34 35 37 68
8 105 -26 33 -88 37 -119 6z"/>
<path d="M7447 7502 c-9 -10 -20 -32 -23 -50 -5 -26 -1 -36 24 -62 37 -36 71
-39 108 -6 34 28 38 84 9 116 -24 26 -95 28 -118 2z"/>
<path d="M8011 7494 c-34 -43 -21 -102 26 -123 35 -16 57 -14 87 10 33 26 37
88 6 119 -31 31 -93 27 -119 -6z"/>
<path d="M8582 7497 c-27 -29 -28 -77 -3 -108 14 -18 29 -24 61 -24 50 0 80
30 80 79 0 69 -91 103 -138 53z"/>
<path d="M5180 6932 c-33 -34 -38 -66 -14 -100 22 -32 57 -43 94 -31 77 27 64
139 -17 155 -27 5 -37 1 -63 -24z"/>
<path d="M5763 6950 c-39 -16 -56 -77 -33 -119 16 -31 65 -46 100 -31 36 15
50 37 50 78 0 57 -62 95 -117 72z"/>
<path d="M6333 6950 c-39 -16 -56 -77 -33 -120 12 -22 64 -42 88 -33 75 26 84
115 15 151 -25 14 -40 14 -70 2z"/>
<path d="M6910 6953 c-51 -19 -68 -89 -32 -133 27 -34 88 -32 118 4 32 37 30
71 -5 107 -28 28 -49 34 -81 22z"/>
<path d="M7455 6937 c-59 -50 -26 -141 50 -141 101 0 109 140 9 160 -24 4 -37
0 -59 -19z"/>
<path d="M8020 6932 c-33 -34 -38 -66 -14 -100 22 -32 57 -43 94 -31 77 27 64
139 -17 155 -27 5 -37 1 -63 -24z"/>
<path d="M8603 6950 c-39 -16 -56 -77 -33 -119 16 -31 65 -46 100 -31 36 15
50 37 50 78 0 57 -62 95 -117 72z"/>
<path d="M9173 6950 c-39 -16 -56 -77 -33 -120 18 -34 110 -48 110 -16 0 10
-9 51 -25 124 -6 23 -17 26 -52 12z"/>
<path d="M1160 6372 c-36 -36 -39 -71 -7 -106 50 -56 137 -26 137 48 0 43 -26
74 -67 82 -27 5 -37 1 -63 -24z"/>
<path d="M4614 6376 c-21 -17 -28 -33 -28 -59 0 -51 27 -77 79 -77 52 0 79 26
79 77 0 41 -40 83 -79 83 -13 0 -36 -11 -51 -24z"/>
<path d="M5180 6372 c-36 -36 -39 -71 -7 -106 50 -56 137 -26 137 48 0 43 -26
74 -67 82 -27 5 -37 1 -63 -24z"/>
<path d="M5765 6389 c-51 -29 -61 -90 -22 -127 30 -29 89 -30 117 -2 25 25 26
80 3 109 -22 25 -71 35 -98 20z"/>
<path d="M6333 6390 c-45 -18 -58 -95 -23 -130 47 -47 140 -13 140 51 0 41 -9
58 -41 74 -32 17 -44 18 -76 5z"/>
<path d="M6910 6393 c-52 -19 -69 -94 -30 -133 31 -31 93 -27 119 6 29 37 26
70 -8 105 -28 28 -49 34 -81 22z"/>
<path d="M7454 6376 c-21 -17 -28 -33 -28 -59 0 -51 27 -77 79 -77 52 0 79 26
79 77 0 41 -40 83 -79 83 -13 0 -36 -11 -51 -24z"/>
<path d="M8020 6372 c-36 -36 -39 -71 -7 -106 50 -56 137 -26 137 48 0 43 -26
74 -67 82 -27 5 -37 1 -63 -24z"/>
<path d="M8605 6388 c-77 -42 -51 -148 36 -148 83 0 111 108 38 145 -33 18
-47 18 -74 3z"/>
<path d="M9173 6390 c-27 -11 -43 -40 -43 -79 0 -71 88 -100 138 -45 30 34 28
70 -7 105 -30 30 -50 34 -88 19z"/>
<path d="M1706 6355 c-22 -59 14 -115 75 -115 43 0 79 34 79 73 0 22 -6 28
-37 36 -86 22 -110 24 -117 6z"/>
<path d="M700 6323 c-8 -3 -39 -17 -69 -29 -45 -20 -52 -26 -41 -39 18 -21 93
-20 113 3 18 20 33 72 21 71 -5 0 -16 -3 -24 -6z"/>
<path d="M4125 6259 c-26 -16 -27 -19 -9 -19 11 0 29 9 39 20 23 25 9 25 -30
-1z"/>
<path d="M585 5798 c-21 -25 -25 -38 -21 -62 15 -76 117 -92 152 -25 18 36 10
73 -23 99 -38 30 -76 26 -108 -12z"/>
<path d="M1155 5805 c-51 -50 -15 -135 58 -135 45 0 77 34 77 82 0 70 -86 103
-135 53z"/>
<path d="M1725 5805 c-53 -52 -18 -135 56 -135 45 0 79 34 79 79 0 42 -38 81
-80 81 -19 0 -40 -9 -55 -25z"/>
<path d="M2296 5809 c-20 -16 -26 -29 -26 -58 0 -49 32 -81 82 -81 70 0 103
86 53 135 -30 31 -73 32 -109 4z"/>
<path d="M2905 5805 c-51 -50 -17 -135 54 -135 49 0 81 32 81 82 0 70 -86 103
-135 53z"/>
<path d="M3475 5805 c-53 -52 -18 -135 57 -135 70 0 103 86 53 135 -15 16 -36
25 -55 25 -19 0 -40 -9 -55 -25z"/>
<path d="M4046 5809 c-34 -27 -37 -88 -4 -119 31 -28 83 -26 113 5 29 28 31
54 10 94 -24 46 -74 55 -119 20z"/>
<path d="M4605 5798 c-21 -25 -25 -38 -21 -62 15 -76 117 -92 152 -25 18 36
10 73 -23 99 -38 30 -76 26 -108 -12z"/>
<path d="M5175 5805 c-51 -50 -15 -135 58 -135 45 0 77 34 77 82 0 70 -86 103
-135 53z"/>
<path d="M5745 5805 c-53 -52 -18 -135 56 -135 47 0 79 34 79 82 0 70 -86 103
-135 53z"/>
<path d="M6316 5809 c-20 -16 -26 -29 -26 -58 0 -49 32 -81 82 -81 70 0 103
86 53 135 -30 31 -73 32 -109 4z"/>
<path d="M6886 5809 c-34 -27 -37 -88 -4 -119 31 -28 83 -26 113 5 29 28 31
54 10 94 -24 46 -74 55 -119 20z"/>
<path d="M7445 5798 c-21 -25 -25 -38 -21 -62 15 -76 117 -92 152 -25 18 36
10 73 -23 99 -38 30 -76 26 -108 -12z"/>
<path d="M8015 5805 c-51 -50 -15 -135 58 -135 45 0 77 34 77 82 0 70 -86 103
-135 53z"/>
<path d="M8585 5805 c-53 -52 -18 -135 56 -135 45 0 79 34 79 79 0 42 -38 81
-80 81 -19 0 -40 -9 -55 -25z"/>
<path d="M9156 5809 c-20 -16 -26 -29 -26 -58 0 -49 32 -81 82 -81 70 0 103
86 53 135 -30 31 -73 32 -109 4z"/>
<path d="M67 5759 c-21 -34 -36 -67 -33 -75 3 -8 20 -14 41 -14 41 0 85 36 85
70 0 28 -28 80 -43 80 -7 0 -29 -27 -50 -61z"/>
<path d="M22 5237 c-32 -34 -30 -89 4 -116 54 -42 120 -16 130 51 5 30 2 41
-19 62 -34 34 -85 35 -115 3z"/>
<path d="M602 5253 c-21 -8 -44 -63 -38 -89 21 -82 130 -84 159 -2 9 24 -11
76 -33 88 -20 10 -66 12 -88 3z"/>
<path d="M1155 5235 c-73 -72 28 -178 109 -114 20 16 26 29 26 58 0 74 -83
109 -135 56z"/>
<path d="M1721 5234 c-28 -36 -27 -79 4 -109 72 -73 178 28 114 109 -16 20
-29 26 -59 26 -30 0 -43 -6 -59 -26z"/>
<path d="M2292 5237 c-32 -34 -30 -89 4 -116 55 -43 134 -8 134 59 0 69 -91
107 -138 57z"/>
<path d="M2905 5235 c-73 -72 28 -178 109 -114 20 16 26 29 26 58 0 74 -83
109 -135 56z"/>
<path d="M3472 5237 c-30 -32 -29 -81 3 -112 72 -73 178 28 114 109 -27 35
-86 36 -117 3z"/>
<path d="M4042 5237 c-32 -34 -30 -89 4 -116 54 -42 120 -16 130 51 5 30 2 41
-19 62 -34 34 -85 35 -115 3z"/>
<path d="M4622 5253 c-21 -8 -44 -63 -38 -89 21 -82 130 -84 159 -2 9 24 -11
76 -33 88 -20 10 -66 12 -88 3z"/>
<path d="M5175 5235 c-73 -72 28 -178 109 -114 20 16 26 29 26 58 0 74 -83
109 -135 56z"/>
<path d="M5741 5234 c-28 -36 -27 -79 4 -109 50 -51 135 -17 135 54 0 76 -94
112 -139 55z"/>
<path d="M6312 5237 c-32 -34 -30 -89 4 -116 36 -28 79 -27 109 4 31 30 32 73
4 109 -27 35 -86 36 -117 3z"/>
<path d="M6882 5237 c-32 -34 -30 -89 4 -116 54 -42 120 -16 130 51 5 30 2 41
-19 62 -34 34 -85 35 -115 3z"/>
<path d="M7462 5253 c-21 -8 -44 -63 -38 -89 21 -82 130 -84 159 -2 9 24 -11
76 -33 88 -20 10 -66 12 -88 3z"/>
<path d="M8015 5235 c-73 -72 28 -178 109 -114 20 16 26 29 26 58 0 74 -83
109 -135 56z"/>
<path d="M8581 5234 c-28 -36 -27 -79 4 -109 72 -73 178 28 114 109 -16 20
-29 26 -59 26 -30 0 -43 -6 -59 -26z"/>
<path d="M9152 5237 c-32 -34 -30 -89 4 -116 55 -43 134 -8 134 59 0 69 -91
107 -138 57z"/>
<path d="M50 4693 c-35 -13 -50 -37 -50 -79 0 -34 5 -47 26 -63 37 -29 70 -26
105 8 38 38 38 74 0 112 -28 28 -49 34 -81 22z"/>
<path d="M596 4678 c-15 -13 -29 -37 -32 -55 -5 -27 -1 -37 24 -63 37 -36 71
-39 108 -6 21 18 28 32 28 61 0 29 -7 43 -28 61 -34 30 -68 30 -100 2z"/>
<path d="M1160 4672 c-32 -32 -37 -56 -19 -95 21 -47 80 -60 123 -26 20 16 26
29 26 59 0 47 -24 78 -67 86 -27 5 -37 1 -63 -24z"/>
<path d="M1745 4688 c-31 -17 -45 -39 -45 -74 0 -49 30 -79 80 -79 49 0 80 29
80 75 0 42 -9 59 -41 75 -33 18 -47 18 -74 3z"/>
<path d="M2313 4690 c-28 -12 -43 -40 -43 -84 0 -80 115 -103 149 -29 18 39
13 63 -18 94 -30 30 -50 34 -88 19z"/>
<path d="M2925 4688 c-31 -18 -44 -40 -44 -73 0 -73 84 -111 134 -60 30 29 33
83 8 114 -22 26 -71 35 -98 19z"/>
<path d="M3493 4690 c-66 -27 -54 -139 16 -155 33 -7 85 15 95 40 17 46 4 91
-35 110 -32 17 -44 18 -76 5z"/>
<path d="M4070 4693 c-35 -13 -50 -37 -50 -79 0 -34 5 -47 26 -63 15 -12 38
-21 51 -21 33 0 83 51 83 85 0 50 -63 95 -110 78z"/>
<path d="M4616 4678 c-15 -13 -29 -37 -32 -55 -5 -27 -1 -37 24 -63 37 -36 71
-39 108 -6 21 18 28 32 28 61 0 29 -7 43 -28 61 -34 30 -68 30 -100 2z"/>
<path d="M5180 4672 c-32 -32 -37 -56 -19 -95 21 -47 80 -60 123 -26 20 16 26
29 26 59 0 47 -24 78 -67 86 -27 5 -37 1 -63 -24z"/>
<path d="M5765 4689 c-32 -18 -45 -40 -45 -75 0 -43 27 -73 72 -80 30 -5 41
-2 62 19 31 31 35 84 9 116 -22 25 -71 35 -98 20z"/>
<path d="M6333 4690 c-50 -20 -60 -105 -17 -139 31 -25 55 -26 93 -6 31 15 41
33 41 70 0 37 -10 55 -41 70 -32 17 -44 18 -76 5z"/>
<path d="M6910 4693 c-35 -13 -50 -37 -50 -79 0 -34 5 -47 26 -63 15 -12 38
-21 51 -21 33 0 83 51 83 85 0 50 -63 95 -110 78z"/>
<path d="M7456 4678 c-15 -13 -29 -37 -32 -55 -5 -27 -1 -37 24 -63 37 -36 71
-39 108 -6 21 18 28 32 28 61 0 29 -7 43 -28 61 -34 30 -68 30 -100 2z"/>
<path d="M8020 4672 c-32 -32 -37 -56 -19 -95 21 -47 80 -60 123 -26 20 16 26
29 26 59 0 47 -24 78 -67 86 -27 5 -37 1 -63 -24z"/>
<path d="M8605 4688 c-31 -17 -45 -39 -45 -74 0 -49 30 -79 80 -79 49 0 80 29
80 75 0 42 -9 59 -41 75 -33 18 -47 18 -74 3z"/>
<path d="M9173 4690 c-28 -12 -43 -40 -43 -84 0 -80 115 -103 149 -29 18 39
13 63 -18 94 -30 30 -50 34 -88 19z"/>
<path d="M26 4109 c-32 -25 -36 -84 -8 -119 27 -34 88 -32 118 4 28 31 30 56
9 95 -24 46 -74 55 -119 20z"/>
<path d="M585 4098 c-21 -25 -25 -38 -21 -62 9 -44 39 -70 81 -70 76 0 109 91
51 140 -39 34 -78 31 -111 -8z"/>
<path d="M1155 4105 c-62 -61 3 -162 85 -134 36 13 50 36 50 83 0 68 -86 101
-135 51z"/>
<path d="M1725 4105 c-44 -43 -31 -112 25 -135 35 -15 84 0 100 31 30 55 -10
129 -70 129 -19 0 -40 -9 -55 -25z"/>
<path d="M2296 4109 c-19 -15 -26 -30 -26 -55 0 -47 14 -70 50 -83 82 -28 147
73 85 134 -30 31 -73 32 -109 4z"/>
<path d="M2905 4105 c-62 -61 3 -162 85 -134 36 13 50 36 50 83 0 68 -86 101
-135 51z"/>
<path d="M3475 4105 c-44 -43 -30 -114 25 -134 35 -12 56 -7 88 22 49 45 11
137 -58 137 -19 0 -40 -9 -55 -25z"/>
<path d="M4046 4109 c-32 -25 -36 -84 -8 -119 27 -34 88 -32 118 4 28 31 30
56 9 95 -24 46 -74 55 -119 20z"/>
<path d="M4605 4098 c-21 -25 -25 -38 -21 -62 9 -44 39 -70 81 -70 76 0 109
91 51 140 -39 34 -78 31 -111 -8z"/>
<path d="M5175 4105 c-62 -61 3 -162 85 -134 36 13 50 36 50 83 0 68 -86 101
-135 51z"/>
<path d="M5745 4105 c-26 -25 -33 -72 -15 -104 16 -31 65 -46 100 -31 37 15
50 37 50 84 0 68 -86 101 -135 51z"/>
<path d="M6316 4109 c-19 -15 -26 -30 -26 -55 0 -47 14 -70 50 -83 83 -28 147
72 85 134 -30 31 -73 32 -109 4z"/>
<path d="M6886 4109 c-32 -25 -36 -84 -8 -119 27 -34 88 -32 118 4 28 31 30
56 9 95 -24 46 -74 55 -119 20z"/>
<path d="M7445 4098 c-21 -25 -25 -38 -21 -62 9 -44 39 -70 81 -70 76 0 109
91 51 140 -39 34 -78 31 -111 -8z"/>
<path d="M8015 4105 c-62 -61 3 -162 85 -134 36 13 50 36 50 83 0 68 -86 101
-135 51z"/>
<path d="M8585 4105 c-44 -43 -31 -112 25 -135 35 -15 84 0 100 31 30 55 -10
129 -70 129 -19 0 -40 -9 -55 -25z"/>
<path d="M9156 4109 c-19 -15 -26 -30 -26 -55 0 -47 14 -70 50 -83 82 -28 147
73 85 134 -30 31 -73 32 -109 4z"/>
<path d="M22 3537 c-32 -34 -30 -89 4 -116 54 -42 120 -16 130 51 5 30 2 41
-19 62 -34 34 -85 35 -115 3z"/>
<path d="M602 3553 c-21 -8 -44 -63 -38 -89 21 -82 130 -84 159 -2 9 24 -11
76 -33 88 -20 10 -66 12 -88 3z"/>
<path d="M1155 3535 c-73 -72 28 -178 109 -114 20 16 26 29 26 58 0 74 -83
109 -135 56z"/>
<path d="M1721 3534 c-28 -36 -27 -79 4 -109 72 -73 178 28 114 109 -16 20
-29 26 -59 26 -30 0 -43 -6 -59 -26z"/>
<path d="M2292 3537 c-32 -34 -30 -89 4 -116 55 -43 134 -8 134 59 0 69 -91
107 -138 57z"/>
<path d="M2905 3535 c-73 -72 28 -178 109 -114 20 16 26 29 26 58 0 74 -83
109 -135 56z"/>
<path d="M3472 3537 c-30 -32 -29 -81 3 -112 72 -73 178 28 114 109 -27 35
-86 36 -117 3z"/>
<path d="M4042 3537 c-32 -34 -30 -89 4 -116 54 -42 120 -16 130 51 5 30 2 41
-19 62 -34 34 -85 35 -115 3z"/>
<path d="M4622 3553 c-21 -8 -44 -63 -38 -89 21 -82 130 -84 159 -2 9 24 -11
76 -33 88 -20 10 -66 12 -88 3z"/>
<path d="M5175 3535 c-73 -72 28 -178 109 -114 20 16 26 29 26 58 0 74 -83
109 -135 56z"/>
<path d="M5741 3534 c-28 -36 -27 -79 4 -109 50 -51 135 -17 135 54 0 76 -94
112 -139 55z"/>
<path d="M6312 3537 c-32 -34 -30 -89 4 -116 36 -28 79 -27 109 4 31 30 32 73
4 109 -27 35 -86 36 -117 3z"/>
<path d="M6882 3537 c-32 -34 -30 -89 4 -116 54 -42 120 -16 130 51 5 30 2 41
-19 62 -34 34 -85 35 -115 3z"/>
<path d="M7462 3553 c-21 -8 -44 -63 -38 -89 21 -82 130 -84 159 -2 9 24 -11
76 -33 88 -20 10 -66 12 -88 3z"/>
<path d="M8015 3535 c-73 -72 28 -178 109 -114 20 16 26 29 26 58 0 74 -83
109 -135 56z"/>
<path d="M8581 3534 c-28 -36 -27 -79 4 -109 72 -73 178 28 114 109 -16 20
-29 26 -59 26 -30 0 -43 -6 -59 -26z"/>
<path d="M9152 3537 c-32 -34 -30 -89 4 -116 47 -37 61 -29 78 50 9 38 14 74
11 80 -12 18 -71 10 -93 -14z"/>
<path d="M20 2970 c-31 -31 -27 -93 6 -119 37 -29 70 -26 105 8 34 35 37 68 8
105 -26 33 -88 37 -119 6z"/>
<path d="M587 2972 c-9 -10 -20 -32 -23 -50 -5 -26 -1 -36 24 -62 37 -36 71
-39 108 -6 34 28 38 84 9 116 -24 26 -95 28 -118 2z"/>
<path d="M1151 2964 c-34 -43 -21 -102 26 -123 35 -16 57 -14 87 10 33 26 37
88 6 119 -31 31 -93 27 -119 -6z"/>
<path d="M1722 2967 c-27 -29 -28 -77 -3 -108 14 -18 29 -24 61 -24 50 0 80
30 80 79 0 69 -91 103 -138 53z"/>
<path d="M2290 2970 c-31 -31 -27 -93 6 -119 30 -24 52 -26 87 -10 47 21 60
80 26 123 -26 33 -88 37 -119 6z"/>
<path d="M2901 2964 c-45 -57 -5 -134 69 -134 58 0 93 97 50 140 -31 31 -93
27 -119 -6z"/>
<path d="M3472 2967 c-63 -67 14 -165 96 -123 33 17 42 34 42 75 0 64 -93 96
-138 48z"/>
<path d="M4040 2970 c-31 -31 -27 -93 6 -119 37 -29 70 -26 105 8 34 35 37 68
8 105 -26 33 -88 37 -119 6z"/>
<path d="M4607 2972 c-9 -10 -20 -32 -23 -50 -5 -26 -1 -36 24 -62 37 -36 71
-39 108 -6 34 28 38 84 9 116 -24 26 -95 28 -118 2z"/>
<path d="M5171 2964 c-24 -30 -26 -52 -10 -87 21 -47 80 -60 123 -26 33 26 37
88 6 119 -31 31 -93 27 -119 -6z"/>
<path d="M5742 2967 c-46 -48 -18 -123 50 -133 30 -5 41 -2 62 19 33 33 35 88
6 117 -29 29 -90 27 -118 -3z"/>
<path d="M6310 2970 c-31 -31 -27 -93 6 -119 31 -25 55 -26 93 -6 32 16 41 33
41 74 0 62 -95 96 -140 51z"/>
<path d="M6880 2970 c-31 -31 -27 -93 6 -119 37 -29 70 -26 105 8 34 35 37 68
8 105 -26 33 -88 37 -119 6z"/>
<path d="M7447 2972 c-9 -10 -20 -32 -23 -50 -5 -26 -1 -36 24 -62 37 -36 71
-39 108 -6 34 28 38 84 9 116 -24 26 -95 28 -118 2z"/>
<path d="M8011 2964 c-24 -30 -26 -52 -10 -87 21 -47 80 -60 123 -26 33 26 37
88 6 119 -31 31 -93 27 -119 -6z"/>
<path d="M8582 2967 c-27 -29 -28 -77 -3 -108 14 -18 29 -24 61 -24 50 0 80
30 80 79 0 69 -91 103 -138 53z"/>
<path d="M595 2407 c-59 -50 -26 -141 50 -141 101 0 109 140 9 160 -24 4 -37
0 -59 -19z"/>
<path d="M1160 2402 c-33 -34 -38 -66 -14 -100 22 -32 57 -43 94 -31 77 27 64
139 -17 155 -27 5 -37 1 -63 -24z"/>
<path d="M1743 2420 c-39 -16 -56 -77 -33 -119 16 -31 65 -46 100 -31 36 15
50 37 50 78 0 57 -62 95 -117 72z"/>
<path d="M2313 2420 c-39 -16 -56 -77 -33 -120 13 -25 65 -41 94 -30 30 11 56
47 56 78 0 28 -51 82 -77 81 -10 0 -28 -4 -40 -9z"/>
<path d="M2912 2405 c-70 -59 -9 -164 78 -134 76 27 64 139 -16 155 -24 4 -37
0 -62 -21z"/>
<path d="M3493 2420 c-39 -16 -56 -77 -33 -120 12 -22 64 -42 88 -33 75 26 84
115 15 151 -25 14 -40 14 -70 2z"/>
<path d="M4070 2423 c-51 -19 -68 -89 -32 -133 27 -34 88 -32 118 4 32 37 30
71 -5 107 -28 28 -49 34 -81 22z"/>
<path d="M4615 2407 c-59 -50 -26 -141 50 -141 101 0 109 140 9 160 -24 4 -37
0 -59 -19z"/>
<path d="M5180 2402 c-33 -34 -38 -66 -14 -100 22 -32 57 -43 94 -31 77 27 64
139 -17 155 -27 5 -37 1 -63 -24z"/>
<path d="M5763 2420 c-39 -16 -56 -77 -33 -119 16 -31 65 -46 100 -31 36 15
50 37 50 78 0 57 -62 95 -117 72z"/>
<path d="M6333 2420 c-39 -16 -56 -77 -33 -120 12 -22 64 -42 88 -33 75 26 84
115 15 151 -25 14 -40 14 -70 2z"/>
<path d="M6910 2423 c-51 -19 -68 -89 -32 -133 27 -34 88 -32 118 4 32 37 30
71 -5 107 -28 28 -49 34 -81 22z"/>
<path d="M7455 2407 c-59 -50 -26 -141 50 -141 101 0 109 140 9 160 -24 4 -37
0 -59 -19z"/>
<path d="M8020 2402 c-33 -34 -38 -66 -14 -100 22 -32 57 -43 94 -31 77 27 64
139 -17 155 -27 5 -37 1 -63 -24z"/>
<path d="M8603 2420 c-39 -16 -56 -77 -33 -119 16 -31 65 -46 100 -31 36 15
50 37 50 78 0 57 -62 95 -117 72z"/>
<path d="M597 1850 c-36 -29 -42 -64 -17 -106 19 -30 26 -34 64 -34 53 0 80
26 80 77 0 26 -7 42 -28 59 -33 29 -65 30 -99 4z"/>
<path d="M1160 1842 c-36 -36 -39 -71 -7 -106 50 -56 137 -26 137 48 0 43 -26
74 -67 82 -27 5 -37 1 -63 -24z"/>
<path d="M1745 1858 c-77 -42 -51 -148 36 -148 83 0 111 108 38 145 -33 18
-47 18 -74 3z"/>
<path d="M2313 1860 c-27 -11 -43 -40 -43 -79 0 -71 88 -100 138 -45 30 34 28
70 -7 105 -30 30 -50 34 -88 19z"/>
<path d="M2925 1858 c-49 -29 -59 -78 -24 -122 26 -33 88 -37 119 -6 25 25 26
80 3 109 -22 26 -71 35 -98 19z"/>
<path d="M3493 1860 c-45 -18 -58 -90 -23 -128 45 -48 140 -14 140 50 0 40
-10 57 -41 73 -32 17 -44 18 -76 5z"/>
<path d="M4070 1863 c-52 -19 -69 -94 -30 -133 31 -31 93 -27 119 6 29 37 26
70 -8 105 -28 28 -49 34 -81 22z"/>
<path d="M4614 1846 c-21 -17 -28 -33 -28 -59 0 -51 27 -77 79 -77 52 0 79 26
79 77 0 41 -40 83 -79 83 -13 0 -36 -11 -51 -24z"/>
<path d="M5180 1842 c-36 -36 -39 -71 -7 -106 50 -56 137 -26 137 48 0 43 -26
74 -67 82 -27 5 -37 1 -63 -24z"/>
<path d="M5765 1859 c-51 -29 -61 -90 -22 -127 30 -29 89 -30 117 -2 25 25 26
80 3 109 -22 25 -71 35 -98 20z"/>
<path d="M6333 1860 c-45 -18 -58 -95 -23 -130 47 -47 140 -13 140 51 0 41 -9
58 -41 74 -32 17 -44 18 -76 5z"/>
<path d="M6910 1863 c-52 -19 -69 -94 -30 -133 31 -31 93 -27 119 6 29 37 26
70 -8 105 -28 28 -49 34 -81 22z"/>
<path d="M7454 1846 c-21 -17 -28 -33 -28 -59 0 -51 27 -77 79 -77 52 0 79 26
79 77 0 41 -40 83 -79 83 -13 0 -36 -11 -51 -24z"/>
<path d="M8020 1842 c-36 -36 -39 -71 -7 -106 50 -56 137 -26 137 48 0 43 -26
74 -67 82 -27 5 -37 1 -63 -24z"/>
<path d="M8598 1854 c-29 -15 -42 -46 -36 -85 5 -37 17 -29 55 39 36 65 32 74
-19 46z"/>
<path d="M1155 1275 c-51 -50 -15 -135 58 -135 45 0 77 34 77 82 0 70 -86 103
-135 53z"/>
<path d="M1725 1275 c-53 -52 -18 -135 56 -135 45 0 79 34 79 79 0 42 -38 81
-80 81 -19 0 -40 -9 -55 -25z"/>
<path d="M2296 1279 c-20 -16 -26 -29 -26 -58 0 -49 32 -81 82 -81 70 0 103
86 53 135 -30 31 -73 32 -109 4z"/>
<path d="M2905 1275 c-51 -50 -17 -135 54 -135 49 0 81 32 81 82 0 70 -86 103
-135 53z"/>
<path d="M3475 1275 c-53 -52 -18 -135 57 -135 70 0 103 86 53 135 -15 16 -36
25 -55 25 -19 0 -40 -9 -55 -25z"/>
<path d="M4046 1279 c-34 -27 -37 -88 -4 -119 31 -28 83 -26 113 5 29 28 31
54 10 94 -24 46 -74 55 -119 20z"/>
<path d="M4605 1268 c-21 -25 -25 -38 -21 -62 15 -76 117 -92 152 -25 18 36
10 73 -23 99 -38 30 -76 26 -108 -12z"/>
<path d="M5175 1275 c-51 -50 -15 -135 58 -135 45 0 77 34 77 82 0 70 -86 103
-135 53z"/>
<path d="M5745 1275 c-53 -52 -18 -135 56 -135 47 0 79 34 79 82 0 70 -86 103
-135 53z"/>
<path d="M6316 1279 c-20 -16 -26 -29 -26 -58 0 -49 32 -81 82 -81 70 0 103
86 53 135 -30 31 -73 32 -109 4z"/>
<path d="M6886 1279 c-34 -27 -37 -88 -4 -119 31 -28 83 -26 113 5 29 28 31
54 10 94 -24 46 -74 55 -119 20z"/>
<path d="M7445 1268 c-21 -25 -25 -38 -21 -62 15 -76 117 -92 152 -25 18 36
10 73 -23 99 -38 30 -76 26 -108 -12z"/>
<path d="M8015 1275 c-51 -50 -15 -135 58 -135 45 0 77 34 77 82 0 70 -86 103
-135 53z"/>
<path d="M1804 699 c26 -17 50 -28 52 -26 2 2 -5 16 -17 30 -14 19 -30 27 -52
27 l-32 0 49 -31z"/>
<path d="M2292 707 c-32 -34 -30 -89 4 -116 55 -43 134 -8 134 59 0 69 -91
107 -138 57z"/>
<path d="M2905 705 c-73 -72 28 -178 109 -114 20 16 26 29 26 58 0 74 -83 109
-135 56z"/>
<path d="M3472 707 c-30 -32 -29 -81 3 -112 72 -73 178 28 114 109 -27 35 -86
36 -117 3z"/>
<path d="M4042 707 c-32 -34 -30 -89 4 -116 54 -42 120 -16 130 51 5 30 2 41
-19 62 -34 34 -85 35 -115 3z"/>
<path d="M4622 723 c-21 -8 -44 -63 -38 -89 21 -82 130 -84 159 -2 9 24 -11
76 -33 88 -20 10 -66 12 -88 3z"/>
<path d="M5175 705 c-73 -72 28 -178 109 -114 20 16 26 29 26 58 0 74 -83 109
-135 56z"/>
<path d="M5741 704 c-28 -36 -27 -79 4 -109 50 -51 135 -17 135 54 0 76 -94
112 -139 55z"/>
<path d="M6312 707 c-32 -34 -30 -89 4 -116 36 -28 79 -27 109 4 31 30 32 73
4 109 -27 35 -86 36 -117 3z"/>
<path d="M6882 707 c-32 -34 -30 -89 4 -116 54 -42 120 -16 130 51 5 30 2 41
-19 62 -34 34 -85 35 -115 3z"/>
<path d="M7459 720 c-29 -17 -43 -66 -29 -99 6 -16 19 -32 27 -36 22 -8 123
63 123 87 0 45 -75 75 -121 48z"/>
<path d="M3472 137 c-28 -30 -28 -45 1 -51 47 -10 128 -26 132 -26 3 0 5 13 5
28 0 65 -93 97 -138 49z"/>
<path d="M4040 140 c-31 -31 -27 -93 6 -119 37 -29 70 -26 105 8 34 35 37 68
8 105 -26 33 -88 37 -119 6z"/>
<path d="M4607 142 c-9 -10 -20 -32 -23 -50 -5 -26 -1 -36 24 -62 37 -36 71
-39 108 -6 34 28 38 84 9 116 -24 26 -95 28 -118 2z"/>
<path d="M5171 134 c-24 -30 -26 -52 -10 -87 21 -47 80 -60 123 -26 33 26 37
88 6 119 -31 31 -93 27 -119 -6z"/>
<path d="M5742 137 c-27 -29 -28 -77 -3 -108 26 -32 96 -32 123 1 24 30 23 85
-2 110 -29 29 -90 27 -118 -3z"/>
<path d="M6310 140 c-22 -22 -27 -50 -7 -50 6 0 28 4 47 9 19 5 48 12 64 16
27 6 28 7 11 25 -25 27 -88 27 -115 0z"/>
</g>
</svg>
