<?xml version="1.0" standalone="no"?>
<!DOCTYPE svg PUBLIC "-//W3C//DTD SVG 20010904//EN"
 "http://www.w3.org/TR/2001/REC-SVG-20010904/DTD/svg10.dtd">
<svg version="1.0" xmlns="http://www.w3.org/2000/svg"
 width="113.000000pt" height="114.000000pt" viewBox="0 0 113.000000 114.000000"
 preserveAspectRatio="xMidYMid meet">

<g transform="translate(0.000000,114.000000) scale(0.100000,-0.100000)"
fill="#FD90A1" stroke="none">
<path d="M186 1112 c-91 -2 -145 -7 -154 -15 -13 -10 -14 -82 -9 -532 6 -480
8 -521 24 -533 14 -10 78 -12 288 -8 148 2 379 5 512 5 208 1 244 3 258 17 14
14 15 46 11 273 -2 141 -5 372 -5 513 -1 224 -3 259 -18 273 -14 15 -53 16
-392 13 -207 -2 -439 -4 -515 -6z m825 -114 c3 -13 4 -214 4 -448 l0 -425
-445 0 -445 0 -3 434 c-2 239 -1 440 2 447 4 10 96 13 444 14 l440 1 3 -23z"/>
</g>
</svg>
