<?xml version="1.0" standalone="no"?>
<!DOCTYPE svg PUBLIC "-//W3C//DTD SVG 20010904//EN"
 "http://www.w3.org/TR/2001/REC-SVG-20010904/DTD/svg10.dtd">
<svg version="1.0" xmlns="http://www.w3.org/2000/svg"
 width="134.000000pt" height="119.000000pt" viewBox="0 0 134.000000 119.000000"
 preserveAspectRatio="xMidYMid meet">

<g transform="translate(0.000000,119.000000) scale(0.100000,-0.100000)"
fill="#7248FF" stroke="none">
<path d="M634 1153 c-6 -10 -44 -74 -84 -143 -40 -69 -97 -168 -128 -220 -30
-52 -66 -115 -80 -140 -14 -25 -35 -61 -47 -80 -12 -19 -33 -55 -47 -80 -14
-25 -56 -97 -93 -160 -37 -63 -80 -140 -97 -170 -17 -30 -35 -61 -40 -67 -15
-19 -1 -60 23 -66 12 -3 300 -6 639 -7 595 0 617 0 634 19 16 17 16 22 2 52
-8 19 -149 268 -314 554 -279 485 -301 520 -328 523 -19 2 -33 -3 -40 -15z
m138 -290 c53 -93 171 -298 262 -457 91 -158 166 -290 166 -292 0 -2 -238 -4
-530 -4 -342 0 -530 3 -530 10 0 5 54 103 121 217 66 115 161 278 211 363 50
85 113 194 141 243 28 48 54 87 58 87 3 0 49 -75 101 -167z"/>
</g>
</svg>
