<?xml version="1.0" standalone="no"?>
<!DOCTYPE svg PUBLIC "-//W3C//DTD SVG 20010904//EN"
 "http://www.w3.org/TR/2001/REC-SVG-20010904/DTD/svg10.dtd">
<svg version="1.0" xmlns="http://www.w3.org/2000/svg"
 width="182.000000pt" height="49.000000pt" viewBox="0 0 182.000000 49.000000"
 preserveAspectRatio="xMidYMid meet">

<g transform="translate(0.000000,49.000000) scale(0.100000,-0.100000)"
fill="#D04A3D" stroke="none">
<path d="M1717 469 c-59 -9 -128 -49 -161 -92 -13 -17 -49 -75 -79 -127 -59
-102 -86 -129 -132 -134 -58 -5 -91 25 -163 153 -83 148 -156 201 -273 201
-119 -1 -192 -55 -275 -206 -27 -48 -64 -103 -81 -122 -30 -31 -37 -34 -74
-29 -55 7 -84 37 -150 153 -32 57 -72 112 -97 134 -68 61 -173 88 -206 54 -32
-32 -6 -74 45 -74 69 0 122 -48 194 -177 78 -138 123 -176 213 -177 97 0 148
40 226 180 79 142 117 174 206 174 89 0 125 -31 213 -180 30 -52 68 -108 85
-123 35 -33 103 -56 152 -50 79 10 128 56 202 191 66 118 107 157 177 167 57
8 79 31 62 64 -14 25 -28 29 -84 20z"/>
</g>
</svg>
