<?xml version="1.0" standalone="no"?>
<!DOCTYPE svg PUBLIC "-//W3C//DTD SVG 20010904//EN"
 "http://www.w3.org/TR/2001/REC-SVG-20010904/DTD/svg10.dtd">
<svg version="1.0" xmlns="http://www.w3.org/2000/svg"
 width="51.000000pt" height="50.000000pt" viewBox="0 0 51.000000 50.000000"
 preserveAspectRatio="xMidYMid meet">

<g transform="translate(0.000000,50.000000) scale(0.100000,-0.100000)"
fill="#429CD2" stroke="none">
<path d="M22 478 l-22 -23 102 -102 103 -103 -103 -103 -103 -103 26 -24 26
-24 102 102 102 102 100 -100 100 -100 25 25 25 25 -100 100 -100 100 103 103
103 103 -26 24 -26 24 -97 -97 c-54 -53 -102 -97 -107 -97 -6 0 -53 43 -105
95 -52 52 -97 95 -100 95 -3 0 -16 -10 -28 -22z"/>
</g>
</svg>
